<?xml version="1.0" encoding="utf-8"?>
<!-- Generator: Adobe Illustrator 15.0.0, SVG Export Plug-In . SVG Version: 6.00 Build 0)  -->
<!DOCTYPE svg PUBLIC "-//W3C//DTD SVG 1.1//EN" "http://www.w3.org/Graphics/SVG/1.1/DTD/svg11.dtd">
<svg version="1.1" id="图层_1" xmlns="http://www.w3.org/2000/svg" xmlns:xlink="http://www.w3.org/1999/xlink" x="0px" y="0px"
	 width="255.12px" height="70.87px" viewBox="0 0 255.12 70.87" enable-background="new 0 0 255.12 70.87" xml:space="preserve">
<g>
	<path fill-rule="evenodd" clip-rule="evenodd" fill="#AF1E24" d="M37.262,3.69c-17.51,0-31.686,14.175-31.686,31.685
		c0,17.512,14.176,31.686,31.686,31.686s31.685-14.174,31.685-31.686C68.946,17.866,54.771,3.69,37.262,3.69z M37.262,58.941
		c-13.004,0-23.566-10.563-23.566-23.566c0-13,10.563-23.563,23.566-23.563c10.657,0,19.67,7.085,22.58,16.85h-6.713
		C50.5,22.464,44.35,18.147,37.262,18.147c-9.529,0-17.229,7.745-17.229,17.228c0,9.529,7.699,17.229,17.229,17.229
		c8.73,0,15.914-6.479,17.041-14.928h-8.591l-0.048,0.047l-6.195,6.105c-0.611,0.607-1.408,0.938-2.207,0.938
		c-0.844,0-1.688-0.33-2.347-0.938l-6.102-6.199c-1.269-1.268-1.269-3.333,0-4.555l6.194-6.15c0.611-0.608,1.455-0.937,2.254-0.937
		c0.846,0,1.689,0.329,2.301,0.937l6.149,6.245h14.976c0.093,0.752,0.141,1.456,0.141,2.206
		C60.828,48.379,50.266,58.941,37.262,58.941z"/>
	<g>
		<g>
			<path fill="#231815" d="M93.65,18.441h26.928l-0.045-5.395h-11.961c-0.102-0.791-0.201-1.831-0.349-3.065l-7.569,0.344
				c0.103,0.939,0.197,1.833,0.35,2.721H86.725V25.36c0,3.142-0.237,7.759-3.018,11.878l4.722,5.172
				c3.489-3.295,5.224-9.147,5.224-14.711c0-5.837-0.002-7.33-0.002-7.33V18.441z"/>
			<polygon fill="#231815" points="157.973,26.457 152.221,28.431 147.318,19.496 153.074,17.519 			"/>
			<polygon fill="#231815" points="147.021,26.457 141.271,28.431 136.369,19.496 142.123,17.519 			"/>
			<path fill="#231815" d="M130.74,29.076c1.113-1.679,1.51-3.992,1.51-5.985c0-1.995-0.035-5.273-0.035-5.273l-5.633-0.021
				c0.098,3.366,0.415,5.881-1.041,9.399L130.74,29.076z M133.646,24.921c0,4.653-1.637,8.813-7.666,12.399l4.307,5.064
				c3.857-1.869,7.521-6.73,8.443-8.988c0.922-2.258,1.309-3.936,1.309-6.745c0-2.809,0.049-16.333,0.049-16.333h-6.441V24.921z
				 M154.564,10.319v32.066h6.943V10.324L154.564,10.319z M150.566,10.623h-6.813V42.08h6.813V10.623z"/>
			<rect x="173.027" y="12.678" fill="#231815" width="11.589" height="4.89"/>
			<rect x="172.345" y="19.627" fill="#231815" width="12.271" height="4.772"/>
			<rect x="175.012" y="23.102" fill="#231815" width="6.27" height="5.557"/>
			<path fill="#231815" d="M173.127,9.667c-0.521,3.156-1.704,5.718-4.004,8.237c0,0,1.061,2.894,1.712,5.387
				c4.461-3.062,7.042-7.789,7.796-12.772L173.127,9.667z"/>
			<path fill="#231815" d="M200.232,26.807h5.225l-0.003-1.659v-14.47l-19.313-0.026v24.375c0,0.449-0.05,0.895-0.248,1.24
				l-0.85-2.742l-3.73,1.258v-3.18h3.465v-5.072h-14.516v5.072h4.695c0,0,0,2.449,0,3.358c0,1.32-0.807,2.148-2.563,2.503
				c0.742,1.336,2.757,4.938,2.757,4.938l9.851-3.168l1.486,3.168l11.575-2.971l-1.896-4.896l-3.692,0.75v-8.478h2.055
				c1.023,6.415,4.722,11.761,9.014,15.595l4.236-4.551C205.077,35.695,200.957,30.864,200.232,26.807z M199.028,22.452h-6.554
				v-1.765h6.554V22.452z M199.028,16.599h-6.554v-1.851h6.554V16.599z"/>
			<path fill="#231815" d="M204.982,27.349c-1,0.877-3.15,2.174-4.599,2.916c0,0,1.979,3.753,2.899,4.442
				c1.396-0.745,3.273-2.054,4.534-3.247L204.982,27.349z"/>
			<path fill="#231815" d="M229.039,20.584v5.88h10.893v8.99c0,0.644-0.448,0.989-1.24,0.989h-5.836l2.076,5.861h5.566
				c4.303,0,6.48-1.535,6.48-4.551v-11.29h3.947v-5.88H229.039z M249.666,11.611H230.13v5.629h19.558L249.666,11.611z
				 M213.703,16.627l3.112,4.965c3.991-1.826,7.515-4.166,10.792-6.846l-3.543-4.474C222.18,11.804,217.209,14.936,213.703,16.627z
				 M219.164,26.587v15.717h6.559v-17.57L219.164,26.587z"/>
			<path fill="#231815" d="M225.674,18.203c-3.391,3.033-6.992,5.899-11.527,8.333c0,0,1.424,3.811,2.277,5.922
				c5.613-3.113,9.956-6.145,13.49-10.104L225.674,18.203z"/>
		</g>
		<g>
			<path fill="#231815" d="M83.707,51.061h4.531c1.838,0,3.208,0.804,3.208,2.498c0,1.242-0.636,1.936-1.737,2.303v0.027
				c1.313,0.268,1.99,0.975,1.99,2.174c0,2.359-2.076,2.854-3.842,2.854h-4.15V51.061z M86.333,54.957h0.735
				c0.859,0,1.749-0.211,1.749-1.045c0-0.904-0.847-0.988-1.722-0.988h-0.763V54.957z M86.333,59.051h0.778
				c0.959,0,1.962-0.141,1.962-1.143c0-1.073-1.031-1.173-1.937-1.173h-0.804V59.051z"/>
			<path fill="#231815" d="M96.485,51.061h3.22l3.797,9.855h-2.878l-0.737-2.104h-3.697l-0.777,2.104h-2.67L96.485,51.061z
				 M98.095,53.094h-0.028l-1.271,3.854h2.47L98.095,53.094z"/>
			<path fill="#231815" d="M104.929,51.061h3.347l3.333,6.691h0.026l-0.041-6.691h2.399v9.855h-3.262l-3.444-6.736h-0.028
				l0.083,6.736h-2.413V51.061z"/>
			<path fill="#231815" d="M116.224,51.061h2.626v4.023h0.031l2.963-4.023h3.162l-3.643,4.588l3.925,5.268h-3.345l-3.063-4.477
				h-0.031v4.477h-2.626V51.061z"/>
			<path fill="#231815" d="M136.021,50.891c3.248,0,4.939,1.934,4.939,5.098c0,3.135-1.721,5.097-4.939,5.097
				c-3.222,0-4.943-1.962-4.943-5.097C131.078,52.824,132.771,50.891,136.021,50.891z M136.021,59.137
				c1.595,0,2.23-1.525,2.23-3.148c0-1.709-0.636-3.148-2.23-3.148c-1.596,0-2.23,1.439-2.23,3.148
				C133.791,57.611,134.426,59.137,136.021,59.137z"/>
			<path fill="#231815" d="M142.713,51.061h6.594v1.863h-3.968v2.16h3.8v1.863h-3.8v3.969h-2.626V51.061z"/>
			<path fill="#231815" d="M164.77,60.633c-1.666,0.424-2.909,0.452-3.813,0.452c-2.629,0-5.665-1.327-5.665-5.054
				c0-3.715,2.614-5.141,6.229-5.141c0.649,0,2.018,0.07,2.979,0.438l-0.214,2.146c-0.816-0.48-1.777-0.635-2.398-0.635
				c-2.133,0-3.883,0.889-3.883,3.191c0,1.934,1.371,3.105,3.288,3.105c0.354,0,0.692-0.057,0.935-0.17V57.02h-1.541v-1.865h4.082
				V60.633z"/>
			<path fill="#231815" d="M175.5,57.174c0,2.697-1.752,3.911-4.321,3.911s-4.321-1.214-4.321-3.911v-6.113h2.627v5.675
				c0,1.3,0.353,2.401,1.694,2.401c1.341,0,1.694-1.102,1.694-2.401v-5.675h2.627V57.174z"/>
			<path fill="#231815" d="M180.482,51.061h3.221l3.798,9.855h-2.88l-0.734-2.104h-3.698l-0.778,2.104h-2.668L180.482,51.061z
				 M182.094,53.094h-0.03l-1.271,3.854h2.473L182.094,53.094z"/>
			<path fill="#231815" d="M188.926,51.061h3.347l3.333,6.691h0.028l-0.043-6.691h2.401v9.855h-3.262l-3.446-6.736h-0.026
				l0.083,6.736h-2.415V51.061z"/>
			<path fill="#231815" d="M209.33,60.633c-1.666,0.424-2.908,0.452-3.813,0.452c-2.625,0-5.662-1.327-5.662-5.054
				c0-3.715,2.614-5.141,6.227-5.141c0.65,0,2.02,0.07,2.98,0.438l-0.211,2.146c-0.82-0.48-1.781-0.635-2.402-0.635
				c-2.133,0-3.883,0.889-3.883,3.191c0,1.934,1.371,3.105,3.291,3.105c0.354,0,0.691-0.057,0.932-0.17V57.02h-1.539v-1.865h4.08
				V60.633z"/>
			<path fill="#231815" d="M218.69,53.15l-4.829,5.816h4.857v1.949h-7.709v-2.09l4.689-5.818h-4.563v-1.947h7.554V53.15z"/>
			<path fill="#231815" d="M220.541,51.061h2.625v3.77h3.107v-3.77h2.626v9.855h-2.626v-4.223h-3.107v4.223h-2.625V51.061z"/>
			<path fill="#231815" d="M235.664,50.891c3.248,0,4.94,1.934,4.94,5.098c0,3.135-1.724,5.097-4.94,5.097
				c-3.221,0-4.943-1.962-4.943-5.097C230.721,52.824,232.415,50.891,235.664,50.891z M235.664,59.137
				c1.594,0,2.229-1.525,2.229-3.148c0-1.709-0.635-3.148-2.229-3.148c-1.595,0-2.23,1.439-2.23,3.148
				C233.434,57.611,234.069,59.137,235.664,59.137z"/>
			<path fill="#231815" d="M250.926,57.174c0,2.697-1.75,3.911-4.319,3.911c-2.571,0-4.321-1.214-4.321-3.911v-6.113h2.627v5.675
				c0,1.3,0.353,2.401,1.694,2.401c1.339,0,1.694-1.102,1.694-2.401v-5.675h2.625V57.174z"/>
		</g>
	</g>
</g>
</svg>
